# xmcd CD database file
#
# Track frame offsets:
#	150
#	89010
#	117717
#	144432
#	189286
#	211523
#	223764
#	244052
#	259917
#
# Disc length: 3650 seconds
#
# Revision: 0
# Processed by: cddbd v1.5.1PL2 Copyright (c) Steve Scherf et al.
# Submitted via: CDex 1.51
#
DISCID=860e4009
DTITLE=Varios - CHACKRAS
DYEAR=1900
DGENRE=New Age
TTITLE0=Chackras PT2
TTITLE1=Awekening Heart
TTITLE2=The End of Days PT2
TTITLE3=Vikings in Space
TTITLE4=Q Worm (Ambient with Horn)
TTITLE5=When Angels Take Us Home
TTITLE6=El Correr del Agua
TTITLE7=Lluvia Sobre el Cristal
TTITLE8=El Ouvido del Musgo
EXTD=
EXTT0=
EXTT1=
EXTT2=
EXTT3=
EXTT4=
EXTT5=
EXTT6=
EXTT7=
EXTT8=
PLAYORDER=
